<svg width="23" height="23" viewBox="0 0 23 23" fill="none" xmlns="http://www.w3.org/2000/svg">
<path d="M9.61538 9.34615C9.61538 9.48077 9.48077 9.61538 9.34615 9.61538H1.26923C1.10769 9.61538 1 9.48077 1 9.34615V1.26923C1 1.10769 1.10769 1 1.26923 1H9.34615C9.48077 1 9.61538 1.10769 9.61538 1.26923V9.34615Z" stroke="#202020" stroke-width="1.5" stroke-miterlimit="10"/>
<path d="M22 9.34615C22 9.48077 21.8923 9.61538 21.7308 9.61538H13.6539C13.4923 9.61538 13.3846 9.48077 13.3846 9.34615V1.26923C13.3846 1.10769 13.4923 1 13.6539 1H21.7308C21.8923 1 22 1.10769 22 1.26923V9.34615Z" stroke="#202020" stroke-width="1.5" stroke-miterlimit="10"/>
<path d="M9.61538 21.7309C9.61538 21.8925 9.48077 22.0001 9.34615 22.0001H1.26923C1.10769 22.0001 1 21.8925 1 21.7309V13.654C1 13.5194 1.10769 13.3848 1.26923 13.3848H9.34615C9.48077 13.3848 9.61538 13.5194 9.61538 13.654V21.7309Z" stroke="#202020" stroke-width="1.5" stroke-miterlimit="10"/>
<path d="M22 21.7309C22 21.8925 21.8923 22.0001 21.7308 22.0001H13.6539C13.4923 22.0001 13.3846 21.8925 13.3846 21.7309V13.654C13.3846 13.5194 13.4923 13.3848 13.6539 13.3848H21.7308C21.8923 13.3848 22 13.5194 22 13.654V21.7309Z" stroke="#202020" stroke-width="1.5" stroke-miterlimit="10"/>
</svg>
