<svg width="19" height="24" viewBox="0 0 19 24" fill="none" xmlns="http://www.w3.org/2000/svg">
<path d="M14.4997 6.29375C14.4997 9.20531 12.2397 11.5875 9.4774 11.5875C6.71512 11.5875 4.45508 9.20531 4.45508 6.29375C4.45508 3.38219 6.71512 1 9.4774 1C12.2397 1 14.4997 3.38219 14.4997 6.29375Z" stroke="#202020" stroke-width="1.5" stroke-miterlimit="10"/>
<path d="M18 20.775C18 17.25 14.2054 14 9.5 14C4.79464 14 1 17.25 1 20.775C1 21.725 1 22.75 1 22.75C1 22.9 1.15179 23 1.30357 23H17.6964C17.8786 23 18 22.9 18 22.75C18 22.75 18 21.7 18 20.775Z" stroke="#202020" stroke-width="1.5" stroke-miterlimit="10"/>
</svg>
