<svg width="24" height="24" viewBox="0 0 24 24" fill="none" xmlns="http://www.w3.org/2000/svg">
<path d="M17.2125 9.14375C16.5503 9.80591 15.4467 9.80591 14.7846 9.14375C14.1224 8.4816 14.1224 7.37801 14.7846 6.71585C15.4467 6.0537 16.5503 6.0537 17.2125 6.71585C17.8992 7.40253 17.8992 8.4816 17.2125 9.14375Z" stroke="#202020" stroke-width="1.5" stroke-miterlimit="10" stroke-linecap="round"/>
<path d="M9.04442 14.9072L2.59454 21.3571" stroke="#202020" stroke-width="1.5" stroke-miterlimit="10"/>
<path d="M22.4603 7.77044L16.1576 1.49224C15.2011 0.535791 13.6561 0.535791 12.6996 1.49224L7.47598 6.7159C6.66668 7.5252 7.25526 9.53619 8.82481 11.6453L0.977055 19.493C0.903482 19.5666 0.903482 19.6892 0.977055 19.7383L4.16521 22.9264C4.2633 23.0245 4.41045 23.0245 4.50855 22.9264L12.3073 15.1277C14.4163 16.6973 16.4273 17.2859 17.2366 16.4766L22.4603 11.2529C23.4167 10.2719 23.4167 8.72689 22.4603 7.77044Z" stroke="#202020" stroke-width="1.5" stroke-miterlimit="10" stroke-linecap="round"/>
</svg>
