<svg width="20" height="24" viewBox="0 0 20 24" fill="none" xmlns="http://www.w3.org/2000/svg">
<path d="M18.9285 19.6999C19.085 19.6999 19.1372 19.5899 19.085 19.4524L16.9196 13.6499C16.8935 13.4849 16.8413 13.2374 16.8413 13.0999C16.8413 13.0999 16.8413 8.03996 16.8413 7.98496C16.737 4.10748 13.7367 1 10.0581 1C6.37944 1 3.37914 4.10748 3.27479 7.98496C3.27479 8.03996 3.27479 13.0999 3.27479 13.0999C3.27479 13.2649 3.22261 13.4849 3.17043 13.6224L1.005 19.4249C0.978909 19.5899 1.05718 19.6999 1.18763 19.6999H18.9285Z" stroke="#202020" stroke-width="1.5" stroke-miterlimit="10"/>
<path d="M12.6677 20.1399C12.6677 21.7074 11.4936 23 10.0587 23C8.6238 23 7.44977 21.7074 7.44977 20.1399" stroke="#202020" stroke-width="1.5" stroke-miterlimit="10"/>
</svg>
