<svg width="21" height="22" viewBox="0 0 21 22" fill="none" xmlns="http://www.w3.org/2000/svg">
<path d="M10.5 14.9613C12.7661 14.9613 14.6032 13.183 14.6032 10.9892C14.6032 8.79547 12.7661 7.01709 10.5 7.01709C8.23381 7.01709 6.39673 8.79547 6.39673 10.9892C6.39673 13.183 8.23381 14.9613 10.5 14.9613Z" stroke="#202020" stroke-width="1.5" stroke-miterlimit="10"/>
<path d="M17.749 10.5918C17.749 10.4814 17.8174 10.3049 17.9086 10.2166L19.9146 8.29675C20.0058 8.20848 20.0286 8.05401 19.9602 7.94367L17.9542 4.5453C17.8858 4.43496 17.749 4.39082 17.6123 4.41289L14.8996 5.14111C14.7856 5.16318 14.6032 5.14112 14.4893 5.07491L13.7598 4.6777C13.6458 4.6115 13.5318 4.47909 13.509 4.36876L12.8024 1.72067C12.7796 1.61034 12.6428 1.5 12.5288 1.5H8.49397C8.38 1.5 8.24322 1.58827 8.22042 1.72067L7.51376 4.36876C7.49096 4.47909 7.37698 4.63357 7.263 4.6777L6.53354 5.07491C6.41956 5.14112 6.23719 5.16318 6.12322 5.14111L3.41052 4.41289C3.29654 4.39082 3.13697 4.43496 3.06859 4.5453L1.03976 7.94367C0.971376 8.05401 0.994172 8.20848 1.08535 8.29675L3.09138 10.2166C3.18256 10.3049 3.25095 10.4814 3.25095 10.5918V11.4082C3.25095 11.5186 3.18256 11.6951 3.09138 11.7834L1.08535 13.7033C0.994172 13.7915 0.971376 13.946 1.03976 14.0563L3.04579 17.4547C3.11418 17.565 3.25095 17.6092 3.38773 17.5871L6.10042 16.8589C6.2144 16.8368 6.39676 16.8589 6.51074 16.9251L7.24021 17.3223C7.35419 17.3885 7.46816 17.5209 7.49096 17.6312L8.19763 20.2793C8.22042 20.3897 8.3572 20.5 8.47118 20.5H12.506C12.62 20.5 12.7568 20.4117 12.7796 20.2793L13.4862 17.6312C13.509 17.5209 13.623 17.3664 13.737 17.3223L14.4665 16.9251C14.5804 16.8589 14.7628 16.8368 14.8768 16.8589L17.5895 17.5871C17.7035 17.6092 17.863 17.565 17.9314 17.4547L19.9374 14.0563C20.0058 13.946 19.983 13.7915 19.8918 13.7033L17.8858 11.7834C17.7946 11.6951 17.7263 11.5186 17.7263 11.4082L17.749 10.5918Z" stroke="#202020" stroke-width="1.5" stroke-miterlimit="10"/>
</svg>
