<svg width="19" height="19" viewBox="0 0 19 19" fill="none" xmlns="http://www.w3.org/2000/svg">
<path d="M5.11378 9.38752C5.11378 10.5302 4.19961 11.4444 3.05689 11.4444C1.91417 11.4444 1 10.5302 1 9.38752C1 8.2448 1.91417 7.33063 3.05689 7.33063C4.19961 7.33063 5.11378 8.2448 5.11378 9.38752Z" stroke="#202020" stroke-width="1.5" stroke-miterlimit="10" stroke-linecap="round" stroke-linejoin="round"/>
<path d="M17.3638 3.05689C17.3638 4.19961 16.4496 5.11378 15.3069 5.11378C14.1641 5.11378 13.25 4.19961 13.25 3.05689C13.25 1.91417 14.1641 1 15.3069 1C16.4496 1 17.3638 1.91417 17.3638 3.05689Z" stroke="#202020" stroke-width="1.5" stroke-miterlimit="10" stroke-linecap="round" stroke-linejoin="round"/>
<path d="M17.3638 15.8782C17.3638 17.0209 16.4496 17.9351 15.3069 17.9351C14.1641 17.9351 13.25 17.0209 13.25 15.8782C13.25 14.7355 14.1641 13.8213 15.3069 13.8213C16.4496 13.8213 17.3638 14.7355 17.3638 15.8782Z" stroke="#202020" stroke-width="1.5" stroke-miterlimit="10" stroke-linecap="round" stroke-linejoin="round"/>
<path d="M4.88516 10.3474L13.4784 14.9183" stroke="#202020" stroke-width="1.5" stroke-miterlimit="10" stroke-linejoin="round"/>
<path d="M13.4784 3.9939L4.88516 8.42764" stroke="#202020" stroke-width="1.5" stroke-miterlimit="10" stroke-linejoin="round"/>
</svg>
