<svg width="18" height="21" viewBox="0 0 18 21" fill="none" xmlns="http://www.w3.org/2000/svg">
<path d="M16.6575 17.1174C16.7942 17.1174 16.8398 17.0213 16.7942 16.9012L14.9028 11.8331C14.8801 11.689 14.8345 11.4728 14.8345 11.3527C14.8345 11.3527 14.8345 6.93316 14.8345 6.88512C14.7433 3.49838 12.1228 0.78418 8.90971 0.78418C5.69666 0.78418 3.07608 3.49838 2.98493 6.88512C2.98493 6.93316 2.98493 11.3527 2.98493 11.3527C2.98493 11.4968 2.93936 11.689 2.89378 11.8091L1.00241 16.8772C0.979625 17.0213 1.04799 17.1174 1.16193 17.1174H16.6575Z" stroke="#202020" stroke-width="1.5" stroke-miterlimit="10"/>
<path d="M11.1882 17.5015C11.1882 18.8706 10.1628 19.9996 8.90944 19.9996C7.65612 19.9996 6.63068 18.8706 6.63068 17.5015" stroke="#202020" stroke-width="1.5" stroke-miterlimit="10"/>
</svg>
