<svg width="20" height="22" viewBox="0 0 20 22" fill="none" xmlns="http://www.w3.org/2000/svg">
<path d="M5.79248 17.4746C5.79248 17.3416 5.88115 17.2307 6.01415 17.2307L9.60528 16.4105C9.71612 16.3662 9.89346 16.4105 9.98213 16.4992L10.8245 17.3416C10.9132 17.4302 11.0462 17.4524 11.1348 17.4081C11.1348 17.4081 11.1348 17.4081 11.2235 17.3637C12.8861 16.4105 14.2604 15.0362 15.2136 13.3736C15.258 13.2849 15.258 13.2849 15.258 13.2849C15.3023 13.1963 15.2801 13.0411 15.1915 12.9524L14.3491 12.1101C14.2604 12.0214 14.2161 11.8662 14.2604 11.7332L15.0806 8.14208C15.1028 8.03125 15.2136 7.92041 15.3245 7.92041H16.588C16.721 7.92041 16.8762 7.98691 16.987 8.05341C16.987 8.05341 18.9156 9.67164 18.8934 9.98198C18.5831 12.8859 17.2752 15.4795 15.3245 17.4302C13.3737 19.381 10.7802 20.6889 7.87622 20.9992C7.56588 21.0435 5.94765 19.0928 5.94765 19.0928C5.85898 19.0041 5.81465 18.8268 5.81465 18.6938V17.4746H5.79248Z" stroke="#202020" stroke-width="1.5" stroke-miterlimit="10"/>
<path d="M16.1012 6.05848V1.62499C16.1012 1.49199 16.0125 1.40332 15.8795 1.40332H1.69238C1.55937 1.40332 1.4707 1.49199 1.4707 1.62499V20.2456C1.4707 20.3787 1.55937 20.4673 1.69238 20.4673H4.21947" stroke="#202020" stroke-width="1.5" stroke-miterlimit="10"/>
<path d="M3.9082 13.3735H8.78504" stroke="#202020" stroke-width="1.5" stroke-miterlimit="10"/>
<path d="M3.9082 6.27979H13.6619" stroke="#202020" stroke-width="1.5" stroke-miterlimit="10"/>
<path d="M3.9082 9.82715H11.0018" stroke="#202020" stroke-width="1.5" stroke-miterlimit="10"/>
</svg>
